<svg aria-hidden="true" style="position: absolute; width: 0; height: 0; overflow: hidden;" version="1.1" xmlns="http://www.w3.org/2000/svg" xmlns:xlink="http://www.w3.org/1999/xlink">
<defs>
<symbol id="icon-processing" viewBox="0 0 33 32">
<path fill="#0055f8" style="fill: var(--color1, #0055f8)" d="M14.747 0c-1.875 0-3.619 1.005-4.505 2.665l-2.624 4.472 2.819 1.679 2.691-4.588c0.29-0.544 0.909-0.928 1.619-0.928h3.257c0.711 0 1.331 0.383 1.622 0.931l0.016 0.029 2.688 4.604-2.72 1.65 6.745 1.688 1.674-6.795-2.893 1.756-2.621-4.488c-0.885-1.666-2.634-2.674-4.512-2.674h-3.257zM7.497 10.939l-6.78 1.543 2.742 1.743-2.893 4.93c-0.866 1.625-0.729 3.623 0.346 5.12v0.003l1.19 1.653c0.961 1.341 2.518 2.114 4.163 2.114h6.793v-3.299h-6.793c-0.622 0-1.187-0.297-1.507-0.744l-1.19-1.656c-0.361-0.503-0.396-1.094-0.112-1.627l2.774-4.73 2.797 1.779-1.53-6.828zM29.31 14.306l-2.825 1.672 2.771 4.746c0.28 0.53 0.244 1.122-0.115 1.621l-1.19 1.656c-0.322 0.447-0.888 0.744-1.507 0.744h-5.193v-3.299l-4.915 4.949 4.915 4.949v-3.299h5.193c1.642 0 3.197-0.769 4.16-2.107l1.19-1.656c1.075-1.493 1.216-3.49 0.352-5.117l-0.016-0.029-2.819-4.83z"></path>
</symbol>
<symbol id="icon-down-arrow" viewBox="0 0 53 32">
<path fill="none" stroke="#0055f8" style="stroke: var(--color1, #0055f8)" stroke-linejoin="miter" stroke-linecap="butt" stroke-miterlimit="4" stroke-width="6.8571" d="M4.571 4.571l21.714 20.571 21.714-20.571"></path>
</symbol>
<symbol id="icon-up-arrow" viewBox="0 0 53 32">
<path fill="none" stroke="#0055f8" style="stroke: var(--color1, #0055f8)" stroke-linejoin="miter" stroke-linecap="butt" stroke-miterlimit="4" stroke-width="6.8571" d="M48 27.429l-21.714-20.571-21.714 20.571"></path>
</symbol>
<symbol id="icon-gallery" viewBox="0 0 32 32">
<path fill="#fff" style="fill: var(--color2, #fff)" d="M6.316 0c-3.473 0-6.316 2.843-6.316 6.316v15.158c0 3.473 2.843 6.316 6.316 6.316h15.158c3.473 0 6.316-2.843 6.316-6.316v-15.158c0-3.473-2.843-6.316-6.316-6.316h-15.158zM6.316 2.526h15.158c2.108 0 3.79 1.681 3.79 3.789v15.158c0 0.587-0.141 1.135-0.375 1.628l-8.658-8.656c-0.64-0.64-1.487-0.961-2.336-0.961s-1.697 0.321-2.337 0.961l-8.656 8.656c-0.234-0.494-0.375-1.041-0.375-1.628v-15.158c0-2.108 1.681-3.789 3.789-3.789zM29.474 5.485v16.831c0 3.947-3.211 7.158-7.158 7.158h-16.831c1.154 1.531 2.98 2.526 5.041 2.526h11.789c5.34 0 9.684-4.344 9.684-9.684v-11.789c0-2.060-0.995-3.887-2.526-5.041zM18.947 6.737c-0.558 0-1.094 0.222-1.489 0.617s-0.617 0.93-0.617 1.489c0 0.558 0.222 1.094 0.617 1.489s0.93 0.617 1.489 0.617c0.558 0 1.094-0.222 1.489-0.617s0.617-0.93 0.617-1.489-0.222-1.094-0.617-1.489c-0.395-0.395-0.93-0.617-1.489-0.617zM13.895 15.997c0.197 0 0.393 0.078 0.549 0.235l8.658 8.656c-0.494 0.234-1.041 0.375-1.628 0.375h-15.158c-0.587 0-1.135-0.141-1.628-0.375l8.656-8.656c0.157-0.157 0.354-0.235 0.551-0.235z"></path>
</symbol>
<symbol id="icon-buy" viewBox="0 0 34 32">
<path fill="#fff" style="fill: var(--color2, #fff)" d="M0 0v2.46h5.153c0.554 0 1.027 0.346 1.208 0.846l2.406 20.497c0.221 1.855 1.892 3.277 3.845 3.277h15.731v-2.46h-15.731c-0.664 0-1.208-0.461-1.278-1.086l-0.161-1.374h16.345c1.832 0 3.432-1.249 3.794-2.96l2.466-11.801h-24.347l-0.554-4.689-0.040-0.115c-0.493-1.538-1.993-2.585-3.684-2.595h-5.153zM25.766 27.080c-1.419 0-2.577 1.105-2.577 2.46s1.157 2.46 2.577 2.46c1.419 0 2.577-1.105 2.577-2.46s-1.157-2.46-2.577-2.46zM12.883 27.080c-1.419 0-2.577 1.105-2.577 2.46s1.157 2.46 2.577 2.46 2.577-1.105 2.577-2.46c0-1.355-1.157-2.46-2.577-2.46zM9.723 9.859h20.915l-1.852 8.85c-0.131 0.586-0.644 0.99-1.268 0.99h-16.637l-1.157-9.84z"></path>
</symbol>
<symbol id="icon-menu-close" viewBox="0 0 32 32">
<path d="M23.733 10.304l-1.504-1.504-5.963 5.963-5.963-5.963-1.504 1.504 5.963 5.963-5.963 5.963 1.504 1.504 5.963-5.963 5.963 5.963 1.504-1.504-5.963-5.963 5.963-5.963z"></path>
</symbol>
<symbol id="icon-menu-open" viewBox="0 0 32 32">
<path d="M6.4 11.733v-2.133h19.2v2.133h-19.2zM6.4 17.067h19.2v-2.133h-19.2v2.133zM6.4 22.4h19.2v-2.133h-19.2v2.133z"></path>
</symbol>
<symbol id="icon-modal-close" viewBox="0 0 32 32">
<path fill="none" stroke="#ff2f2f" style="stroke: var(--color1, #ff2f2f)" stroke-linejoin="miter" stroke-linecap="butt" stroke-miterlimit="4" stroke-width="2.9091" d="M29.541 1.455l-14.043 14.043M15.498 15.498l-14.043-14.043M15.498 15.498l14.043 14.043M15.498 15.498l-14.043 14.043"></path>
</symbol>
<symbol id="icon-inc" viewBox="0 0 32 32">
<path fill="none" stroke="#000000" stroke-linejoin="miter" stroke-linecap="butt" stroke-miterlimit="4" stroke-width="4" d="M16 2v13.95M16 15.95h-13.95M16 15.95h13.95M16 15.95v13.95"></path>
</symbol>
<symbol id="icon-dec" viewBox="0 0 32 32">
<path fill="none" stroke="#000000" stroke-linejoin="miter" stroke-linecap="butt" stroke-miterlimit="4" stroke-width="4" d="M2.050 15.95h27.9"></path>
</symbol>
</defs>
</svg>
